<svg width="116" height="27" viewBox="0 0 116 27" fill="none" xmlns="http://www.w3.org/2000/svg">
<path d="M37.688 20H33.422V7.67H37.688C39.584 7.67 40.88 8.15 41.576 9.11C42.272 10.07 42.62 11.576 42.62 13.628C42.62 14.672 42.548 15.56 42.404 16.292C42.272 17.012 42.032 17.666 41.684 18.254C41 19.418 39.668 20 37.688 20ZM40.55 13.628C40.55 12.14 40.364 11.066 39.992 10.406C39.62 9.746 38.852 9.416 37.688 9.416H35.42V18.236H37.688C38.876 18.236 39.668 17.798 40.064 16.922C40.256 16.478 40.382 16.004 40.442 15.5C40.514 14.996 40.55 14.372 40.55 13.628ZM51.3793 13.772V17.876C51.3913 18.14 51.4573 18.338 51.5773 18.47C51.7093 18.59 51.9073 18.668 52.1713 18.704L52.1173 20.198C51.0853 20.198 50.2873 19.976 49.7233 19.532C48.7633 19.976 47.7973 20.198 46.8253 20.198C45.0373 20.198 44.1433 19.244 44.1433 17.336C44.1433 16.424 44.3833 15.764 44.8633 15.356C45.3553 14.948 46.1053 14.702 47.1133 14.618L49.4353 14.42V13.772C49.4353 13.292 49.3273 12.956 49.1113 12.764C48.9073 12.572 48.6013 12.476 48.1933 12.476C47.4253 12.476 46.4653 12.524 45.3133 12.62L44.7373 12.656L44.6653 11.27C45.9733 10.958 47.1733 10.802 48.2653 10.802C49.3693 10.802 50.1613 11.042 50.6413 11.522C51.1333 11.99 51.3793 12.74 51.3793 13.772ZM47.3473 16.004C46.5193 16.076 46.1053 16.526 46.1053 17.354C46.1053 18.182 46.4713 18.596 47.2033 18.596C47.8033 18.596 48.4393 18.5 49.1113 18.308L49.4353 18.2V15.806L47.3473 16.004ZM60.0883 12.854C58.6723 12.662 57.6463 12.566 57.0103 12.566C56.3743 12.566 55.9303 12.644 55.6783 12.8C55.4383 12.944 55.3183 13.178 55.3183 13.502C55.3183 13.826 55.4503 14.054 55.7143 14.186C55.9903 14.318 56.6263 14.474 57.6223 14.654C58.6303 14.822 59.3443 15.092 59.7643 15.464C60.1843 15.836 60.3943 16.496 60.3943 17.444C60.3943 18.392 60.0883 19.088 59.4763 19.532C58.8763 19.976 57.9943 20.198 56.8303 20.198C56.0983 20.198 55.1743 20.096 54.0583 19.892L53.5003 19.802L53.5723 18.164C55.0123 18.356 56.0503 18.452 56.6863 18.452C57.3223 18.452 57.7723 18.374 58.0363 18.218C58.3123 18.062 58.4503 17.804 58.4503 17.444C58.4503 17.084 58.3183 16.838 58.0543 16.706C57.8023 16.562 57.1843 16.412 56.2003 16.256C55.2283 16.088 54.5143 15.83 54.0583 15.482C53.6023 15.134 53.3743 14.498 53.3743 13.574C53.3743 12.65 53.6863 11.96 54.3103 11.504C54.9463 11.048 55.7563 10.82 56.7403 10.82C57.5083 10.82 58.4503 10.916 59.5663 11.108L60.1243 11.216L60.0883 12.854ZM64.2418 20H62.2798V7.256H64.2418V11.468C65.1298 11.024 65.9518 10.802 66.7078 10.802C67.9078 10.802 68.7238 11.144 69.1558 11.828C69.5998 12.5 69.8218 13.616 69.8218 15.176V20H67.8598V15.23C67.8598 14.258 67.7578 13.568 67.5538 13.16C67.3498 12.752 66.9178 12.548 66.2578 12.548C65.6818 12.548 65.1058 12.644 64.5298 12.836L64.2418 12.944V20ZM76.3 10.802C77.536 10.802 78.424 11.15 78.964 11.846C79.516 12.53 79.792 13.748 79.792 15.5C79.792 17.252 79.468 18.476 78.82 19.172C78.172 19.856 77.032 20.198 75.4 20.198C74.836 20.198 73.942 20.144 72.718 20.036L72.106 19.982V7.256H74.05V11.342C74.878 10.982 75.628 10.802 76.3 10.802ZM75.4 18.452C76.36 18.452 76.996 18.23 77.308 17.786C77.632 17.33 77.794 16.562 77.794 15.482C77.794 14.402 77.656 13.646 77.38 13.214C77.116 12.77 76.678 12.548 76.066 12.548C75.49 12.548 74.914 12.638 74.338 12.818L74.05 12.908V18.38C74.71 18.428 75.16 18.452 75.4 18.452ZM82.2424 11.972C82.8664 11.192 83.8984 10.802 85.3384 10.802C86.7784 10.802 87.8044 11.192 88.4164 11.972C89.0404 12.752 89.3524 13.922 89.3524 15.482C89.3524 17.042 89.0524 18.218 88.4524 19.01C87.8524 19.802 86.8144 20.198 85.3384 20.198C83.8624 20.198 82.8244 19.802 82.2244 19.01C81.6244 18.218 81.3244 17.042 81.3244 15.482C81.3244 13.922 81.6304 12.752 82.2424 11.972ZM83.7184 17.822C83.9944 18.302 84.5344 18.542 85.3384 18.542C86.1424 18.542 86.6824 18.302 86.9584 17.822C87.2344 17.342 87.3724 16.556 87.3724 15.464C87.3724 14.372 87.2224 13.598 86.9224 13.142C86.6344 12.686 86.1064 12.458 85.3384 12.458C84.5704 12.458 84.0364 12.686 83.7364 13.142C83.4484 13.598 83.3044 14.372 83.3044 15.464C83.3044 16.556 83.4424 17.342 83.7184 17.822ZM97.9613 13.772V17.876C97.9733 18.14 98.0393 18.338 98.1593 18.47C98.2913 18.59 98.4893 18.668 98.7533 18.704L98.6993 20.198C97.6673 20.198 96.8693 19.976 96.3053 19.532C95.3453 19.976 94.3793 20.198 93.4073 20.198C91.6193 20.198 90.7253 19.244 90.7253 17.336C90.7253 16.424 90.9653 15.764 91.4453 15.356C91.9373 14.948 92.6873 14.702 93.6953 14.618L96.0173 14.42V13.772C96.0173 13.292 95.9093 12.956 95.6933 12.764C95.4893 12.572 95.1833 12.476 94.7753 12.476C94.0073 12.476 93.0473 12.524 91.8953 12.62L91.3193 12.656L91.2473 11.27C92.5553 10.958 93.7553 10.802 94.8473 10.802C95.9513 10.802 96.7433 11.042 97.2233 11.522C97.7153 11.99 97.9613 12.74 97.9613 13.772ZM93.9293 16.004C93.1013 16.076 92.6873 16.526 92.6873 17.354C92.6873 18.182 93.0533 18.596 93.7853 18.596C94.3853 18.596 95.0213 18.5 95.6933 18.308L96.0173 18.2V15.806L93.9293 16.004ZM100.424 20V11H102.368V12.08C103.388 11.42 104.408 10.994 105.428 10.802V12.764C104.396 12.968 103.514 13.232 102.782 13.556L102.386 13.718V20H100.424ZM114.184 7.256V20H112.24V19.532C111.364 19.976 110.56 20.198 109.828 20.198C108.652 20.198 107.788 19.844 107.236 19.136C106.696 18.428 106.426 17.24 106.426 15.572C106.426 13.904 106.726 12.692 107.326 11.936C107.938 11.18 108.886 10.802 110.17 10.802C110.602 10.802 111.286 10.88 112.222 11.036V7.256H114.184ZM111.916 18.128L112.222 18.002V12.674C111.502 12.554 110.836 12.494 110.224 12.494C109.012 12.494 108.406 13.502 108.406 15.518C108.406 16.622 108.544 17.39 108.82 17.822C109.108 18.242 109.558 18.452 110.17 18.452C110.782 18.452 111.364 18.344 111.916 18.128Z" fill="#181818"/>
<path d="M19 7V9H15V7H19ZM9 7V13H5V7H9ZM19 15V21H15V15H19ZM9 19V21H5V19H9ZM21 5H13V11H21V5ZM11 5H3V15H11V5ZM21 13H13V23H21V13ZM11 17H3V23H11V17Z" fill="#181818"/>
</svg>
