<svg width="90" height="27" viewBox="0 0 90 27" fill="none" xmlns="http://www.w3.org/2000/svg">
<path opacity="0.8" d="M41.388 20H34.53V7.544H35.916V18.758H41.388V20ZM42.4254 15.482C42.4254 13.838 42.7194 12.65 43.3074 11.918C43.8954 11.186 44.8854 10.82 46.2774 10.82C47.6814 10.82 48.6714 11.186 49.2474 11.918C49.8354 12.65 50.1294 13.838 50.1294 15.482C50.1294 17.126 49.8534 18.32 49.3014 19.064C48.7494 19.808 47.7414 20.18 46.2774 20.18C44.8134 20.18 43.8054 19.808 43.2534 19.064C42.7014 18.32 42.4254 17.126 42.4254 15.482ZM43.8114 15.464C43.8114 16.772 43.9674 17.69 44.2794 18.218C44.6034 18.746 45.2694 19.01 46.2774 19.01C47.2974 19.01 47.9634 18.752 48.2754 18.236C48.5874 17.708 48.7434 16.784 48.7434 15.464C48.7434 14.144 48.5694 13.238 48.2214 12.746C47.8734 12.242 47.2254 11.99 46.2774 11.99C45.3414 11.99 44.6934 12.242 44.3334 12.746C43.9854 13.238 43.8114 14.144 43.8114 15.464ZM55.8052 24.23C54.3652 24.23 53.3572 24.032 52.7812 23.636C52.2172 23.252 51.9352 22.544 51.9352 21.512C51.9352 21.02 52.0432 20.618 52.2592 20.306C52.4752 20.006 52.8412 19.664 53.3572 19.28C53.0212 19.052 52.8532 18.638 52.8532 18.038C52.8532 17.834 53.0032 17.456 53.3032 16.904L53.4652 16.616C52.5172 16.184 52.0432 15.278 52.0432 13.898C52.0432 11.846 53.1652 10.82 55.4092 10.82C55.9852 10.82 56.5192 10.88 57.0112 11L57.2812 11.054L59.9452 10.982V12.134L58.2352 12.098C58.6312 12.494 58.8292 13.094 58.8292 13.898C58.8292 15.026 58.5472 15.818 57.9832 16.274C57.4312 16.718 56.5552 16.94 55.3552 16.94C55.0312 16.94 54.7372 16.916 54.4732 16.868C54.2572 17.396 54.1492 17.738 54.1492 17.894C54.1492 18.266 54.2632 18.5 54.4912 18.596C54.7192 18.68 55.4092 18.722 56.5612 18.722C57.7132 18.722 58.5412 18.902 59.0452 19.262C59.5492 19.622 59.8012 20.324 59.8012 21.368C59.8012 23.276 58.4692 24.23 55.8052 24.23ZM53.2672 21.404C53.2672 22.04 53.4412 22.478 53.7892 22.718C54.1492 22.97 54.8032 23.096 55.7512 23.096C56.7112 23.096 57.3952 22.964 57.8032 22.7C58.2232 22.436 58.4332 21.992 58.4332 21.368C58.4332 20.756 58.2832 20.36 57.9832 20.18C57.6832 20 57.0952 19.91 56.2192 19.91L54.2752 19.82C53.8792 20.108 53.6092 20.36 53.4652 20.576C53.3332 20.792 53.2672 21.068 53.2672 21.404ZM53.3932 13.898C53.3932 14.606 53.5492 15.11 53.8612 15.41C54.1852 15.71 54.7132 15.86 55.4452 15.86C56.1772 15.86 56.6992 15.71 57.0112 15.41C57.3232 15.11 57.4792 14.606 57.4792 13.898C57.4792 13.178 57.3232 12.668 57.0112 12.368C56.6992 12.068 56.1772 11.918 55.4452 11.918C54.7132 11.918 54.1852 12.074 53.8612 12.386C53.5492 12.686 53.3932 13.19 53.3932 13.898ZM65.1363 15.482C65.1363 13.838 65.4303 12.65 66.0183 11.918C66.6063 11.186 67.5963 10.82 68.9883 10.82C70.3923 10.82 71.3823 11.186 71.9583 11.918C72.5463 12.65 72.8403 13.838 72.8403 15.482C72.8403 17.126 72.5643 18.32 72.0123 19.064C71.4603 19.808 70.4523 20.18 68.9883 20.18C67.5243 20.18 66.5163 19.808 65.9643 19.064C65.4123 18.32 65.1363 17.126 65.1363 15.482ZM66.5223 15.464C66.5223 16.772 66.6783 17.69 66.9903 18.218C67.3143 18.746 67.9803 19.01 68.9883 19.01C70.0083 19.01 70.6743 18.752 70.9863 18.236C71.2983 17.708 71.4543 16.784 71.4543 15.464C71.4543 14.144 71.2803 13.238 70.9323 12.746C70.5843 12.242 69.9363 11.99 68.9883 11.99C68.0523 11.99 67.4043 12.242 67.0443 12.746C66.6963 13.238 66.5223 14.144 66.5223 15.464ZM80.6581 11H82.0081V20H80.6581V19.37C79.7581 19.91 78.8701 20.18 77.9941 20.18C76.7701 20.18 75.9541 19.862 75.5461 19.226C75.1501 18.59 74.9521 17.414 74.9521 15.698V11H76.3021V15.68C76.3021 16.988 76.4161 17.864 76.6441 18.308C76.8721 18.752 77.3881 18.974 78.1921 18.974C78.5881 18.974 78.9901 18.92 79.3981 18.812C79.8061 18.692 80.1181 18.578 80.3341 18.47L80.6581 18.308V11ZM89.2666 12.17H86.4046V16.472C86.4046 17.504 86.4766 18.182 86.6206 18.506C86.7766 18.83 87.1366 18.992 87.7006 18.992L89.3026 18.884L89.3926 20C88.5886 20.132 87.9766 20.198 87.5566 20.198C86.6206 20.198 85.9726 19.97 85.6126 19.514C85.2526 19.058 85.0726 18.188 85.0726 16.904V12.17H83.7946V11H85.0726V8.246H86.4046V11H89.2666V12.17Z" fill="black"/>
<path d="M17.7083 9.33333L16.2396 10.8021L17.8854 12.4583H9.375V14.5417H17.8854L16.2396 16.1875L17.7083 17.6667L21.875 13.5L17.7083 9.33333ZM5.20833 6.20833H12.5V4.125H5.20833C4.0625 4.125 3.125 5.0625 3.125 6.20833V20.7917C3.125 21.9375 4.0625 22.875 5.20833 22.875H12.5V20.7917H5.20833V6.20833Z" fill="black"/>
</svg>
