<svg width="183" height="65" viewBox="0 0 183 65" fill="none" xmlns="http://www.w3.org/2000/svg">
<rect width="183" height="65" rx="6" fill="#2DA5FC"/>
<path d="M167 17L167 49" stroke="white" stroke-width="2" stroke-linecap="round"/>
<path opacity="0.8" d="M44.234 28.452V26.67H53.234V28.452H49.76V39H47.744V28.452H44.234ZM53.7248 30.972C54.3488 30.192 55.3808 29.802 56.8208 29.802C58.2608 29.802 59.2868 30.192 59.8988 30.972C60.5228 31.752 60.8348 32.922 60.8348 34.482C60.8348 36.042 60.5348 37.218 59.9348 38.01C59.3348 38.802 58.2968 39.198 56.8208 39.198C55.3448 39.198 54.3068 38.802 53.7068 38.01C53.1068 37.218 52.8068 36.042 52.8068 34.482C52.8068 32.922 53.1128 31.752 53.7248 30.972ZM55.2008 36.822C55.4768 37.302 56.0168 37.542 56.8208 37.542C57.6248 37.542 58.1648 37.302 58.4408 36.822C58.7168 36.342 58.8548 35.556 58.8548 34.464C58.8548 33.372 58.7048 32.598 58.4048 32.142C58.1168 31.686 57.5888 31.458 56.8208 31.458C56.0528 31.458 55.5188 31.686 55.2188 32.142C54.9308 32.598 54.7868 33.372 54.7868 34.464C54.7868 35.556 54.9248 36.342 55.2008 36.822ZM67.6257 31.674H65.1417V35.634C65.1417 36.366 65.1957 36.852 65.3037 37.092C65.4117 37.332 65.6877 37.452 66.1317 37.452L67.6077 37.398L67.6977 38.964C66.8937 39.12 66.2817 39.198 65.8617 39.198C64.8417 39.198 64.1397 38.964 63.7557 38.496C63.3837 38.028 63.1977 37.146 63.1977 35.85V31.674H62.0457V30H63.1977V27.39H65.1417V30H67.6257V31.674ZM75.8949 32.772V36.876C75.9069 37.14 75.9729 37.338 76.0929 37.47C76.2249 37.59 76.4229 37.668 76.6869 37.704L76.6329 39.198C75.6009 39.198 74.8029 38.976 74.2389 38.532C73.2789 38.976 72.3129 39.198 71.3409 39.198C69.5529 39.198 68.6589 38.244 68.6589 36.336C68.6589 35.424 68.8989 34.764 69.3789 34.356C69.8709 33.948 70.6209 33.702 71.6289 33.618L73.9509 33.42V32.772C73.9509 32.292 73.8429 31.956 73.6269 31.764C73.4229 31.572 73.1169 31.476 72.7089 31.476C71.9409 31.476 70.9809 31.524 69.8289 31.62L69.2529 31.656L69.1809 30.27C70.4889 29.958 71.6889 29.802 72.7809 29.802C73.8849 29.802 74.6769 30.042 75.1569 30.522C75.6489 30.99 75.8949 31.74 75.8949 32.772ZM71.8629 35.004C71.0349 35.076 70.6209 35.526 70.6209 36.354C70.6209 37.182 70.9869 37.596 71.7189 37.596C72.3189 37.596 72.9549 37.5 73.6269 37.308L73.9509 37.2V34.806L71.8629 35.004ZM78.4659 39V26.256H80.4279V39H78.4659ZM90.2317 29.802C90.8677 29.802 91.6177 29.886 92.4817 30.054L92.9317 30.144L92.8597 31.692C91.9117 31.596 91.2097 31.548 90.7537 31.548C89.8417 31.548 89.2297 31.752 88.9177 32.16C88.6057 32.568 88.4497 33.336 88.4497 34.464C88.4497 35.592 88.5997 36.372 88.8997 36.804C89.1997 37.236 89.8237 37.452 90.7717 37.452L92.8777 37.308L92.9317 38.874C91.7197 39.09 90.8077 39.198 90.1957 39.198C88.8277 39.198 87.8617 38.832 87.2977 38.1C86.7457 37.356 86.4697 36.144 86.4697 34.464C86.4697 32.784 86.7637 31.59 87.3517 30.882C87.9397 30.162 88.8997 29.802 90.2317 29.802ZM95.2267 30.972C95.8507 30.192 96.8827 29.802 98.3227 29.802C99.7627 29.802 100.789 30.192 101.401 30.972C102.025 31.752 102.337 32.922 102.337 34.482C102.337 36.042 102.037 37.218 101.437 38.01C100.837 38.802 99.7987 39.198 98.3227 39.198C96.8467 39.198 95.8087 38.802 95.2087 38.01C94.6087 37.218 94.3087 36.042 94.3087 34.482C94.3087 32.922 94.6147 31.752 95.2267 30.972ZM96.7027 36.822C96.9787 37.302 97.5187 37.542 98.3227 37.542C99.1267 37.542 99.6667 37.302 99.9427 36.822C100.219 36.342 100.357 35.556 100.357 34.464C100.357 33.372 100.207 32.598 99.9067 32.142C99.6187 31.686 99.0907 31.458 98.3227 31.458C97.5547 31.458 97.0207 31.686 96.7207 32.142C96.4327 32.598 96.2887 33.372 96.2887 34.464C96.2887 35.556 96.4267 36.342 96.7027 36.822ZM106.248 39H104.286V30H106.23V30.558C107.106 30.054 107.934 29.802 108.714 29.802C109.914 29.802 110.73 30.144 111.162 30.828C111.606 31.5 111.828 32.616 111.828 34.176V39H109.884V34.23C109.884 33.258 109.776 32.568 109.56 32.16C109.356 31.752 108.93 31.548 108.282 31.548C107.67 31.548 107.082 31.668 106.518 31.908L106.248 32.016V39ZM118.954 31.674H116.47V35.634C116.47 36.366 116.524 36.852 116.632 37.092C116.74 37.332 117.016 37.452 117.46 37.452L118.936 37.398L119.026 38.964C118.222 39.12 117.61 39.198 117.19 39.198C116.17 39.198 115.468 38.964 115.084 38.496C114.712 38.028 114.526 37.146 114.526 35.85V31.674H113.374V30H114.526V27.39H116.47V30H118.954V31.674ZM127.223 32.772V36.876C127.235 37.14 127.301 37.338 127.421 37.47C127.553 37.59 127.751 37.668 128.015 37.704L127.961 39.198C126.929 39.198 126.131 38.976 125.567 38.532C124.607 38.976 123.641 39.198 122.669 39.198C120.881 39.198 119.987 38.244 119.987 36.336C119.987 35.424 120.227 34.764 120.707 34.356C121.199 33.948 121.949 33.702 122.957 33.618L125.279 33.42V32.772C125.279 32.292 125.171 31.956 124.955 31.764C124.751 31.572 124.445 31.476 124.037 31.476C123.269 31.476 122.309 31.524 121.157 31.62L120.581 31.656L120.509 30.27C121.817 29.958 123.017 29.802 124.109 29.802C125.213 29.802 126.005 30.042 126.485 30.522C126.977 30.99 127.223 31.74 127.223 32.772ZM123.191 35.004C122.363 35.076 121.949 35.526 121.949 36.354C121.949 37.182 122.315 37.596 123.047 37.596C123.647 37.596 124.283 37.5 124.955 37.308L125.279 37.2V34.806L123.191 35.004ZM133.052 29.802C133.688 29.802 134.438 29.886 135.302 30.054L135.752 30.144L135.68 31.692C134.732 31.596 134.03 31.548 133.574 31.548C132.662 31.548 132.05 31.752 131.738 32.16C131.426 32.568 131.27 33.336 131.27 34.464C131.27 35.592 131.42 36.372 131.72 36.804C132.02 37.236 132.644 37.452 133.592 37.452L135.698 37.308L135.752 38.874C134.54 39.09 133.628 39.198 133.016 39.198C131.648 39.198 130.682 38.832 130.118 38.1C129.566 37.356 129.29 36.144 129.29 34.464C129.29 32.784 129.584 31.59 130.172 30.882C130.76 30.162 131.72 29.802 133.052 29.802ZM142.491 31.674H140.007V35.634C140.007 36.366 140.061 36.852 140.169 37.092C140.277 37.332 140.553 37.452 140.997 37.452L142.473 37.398L142.563 38.964C141.759 39.12 141.147 39.198 140.727 39.198C139.707 39.198 139.005 38.964 138.621 38.496C138.249 38.028 138.063 37.146 138.063 35.85V31.674H136.911V30H138.063V27.39H140.007V30H142.491V31.674ZM150.346 31.854C148.93 31.662 147.904 31.566 147.268 31.566C146.632 31.566 146.188 31.644 145.936 31.8C145.696 31.944 145.576 32.178 145.576 32.502C145.576 32.826 145.708 33.054 145.972 33.186C146.248 33.318 146.884 33.474 147.88 33.654C148.888 33.822 149.602 34.092 150.022 34.464C150.442 34.836 150.652 35.496 150.652 36.444C150.652 37.392 150.346 38.088 149.734 38.532C149.134 38.976 148.252 39.198 147.088 39.198C146.356 39.198 145.432 39.096 144.316 38.892L143.758 38.802L143.83 37.164C145.27 37.356 146.308 37.452 146.944 37.452C147.58 37.452 148.03 37.374 148.294 37.218C148.57 37.062 148.708 36.804 148.708 36.444C148.708 36.084 148.576 35.838 148.312 35.706C148.06 35.562 147.442 35.412 146.458 35.256C145.486 35.088 144.772 34.83 144.316 34.482C143.86 34.134 143.632 33.498 143.632 32.574C143.632 31.65 143.944 30.96 144.568 30.504C145.204 30.048 146.014 29.82 146.998 29.82C147.766 29.82 148.708 29.916 149.824 30.108L150.382 30.216L150.346 31.854Z" fill="white"/>
<path d="M34 25H18C16.9 25 16 25.9 16 27V39C16 40.1 16.9 41 18 41H34C35.1 41 36 40.1 36 39V27C36 25.9 35.1 25 34 25ZM34 39H18V27H34V39ZM18 21H34V23H18V21ZM18 43H34V45H18V43ZM26 33C27.38 33 28.5 31.88 28.5 30.5C28.5 29.12 27.38 28 26 28C24.62 28 23.5 29.12 23.5 30.5C23.5 31.88 24.62 33 26 33ZM26 29.5C26.55 29.5 27 29.95 27 30.5C27 31.05 26.55 31.5 26 31.5C25.45 31.5 25 31.05 25 30.5C25 29.95 25.45 29.5 26 29.5ZM31 36.99C31 34.9 27.69 34 26 34C24.31 34 21 34.9 21 36.99V38H31V36.99ZM22.81 36.5C23.42 35.98 24.84 35.5 26 35.5C27.17 35.5 28.59 35.98 29.2 36.5H22.81Z" fill="white"/>
</svg>